# xmcd
#
# Track frame offsets: 
#        150
#        18235
#        38939
#        55408
#        72964
#        88594
#        108372
#        120777
#        136342
#        155920
#
# Disc length: 2346 seconds
#
# Revision: 0
# Processed by: cddbd v1.5.2PL0 Copyright (c) Steve Scherf et al.
# Submitted via: ExactAudioCopy v1.0b4
#
DISCID=8009280a
DTITLE=Left Lane Cruiser - Dirty Spliff Blues
DYEAR=2015
DGENRE=Blues Rock
TTITLE0=Tres Borrachos
TTITLE1=Elephant Stomp
TTITLE2=Whitebread n' Beans
TTITLE3=Tangled up in Bush
TTITLE4=Heavy Honey
TTITLE5=Dirty Spliff Blues
TTITLE6=Cutting Trees
TTITLE7=All Damn Day
TTITLE8=Skateboard Blues
TTITLE9=She Don't Care
EXTD=
EXTT0=
EXTT1=
EXTT2=
EXTT3=
EXTT4=
EXTT5=
EXTT6=
EXTT7=
EXTT8=
EXTT9=
PLAYORDER=
